<?xml version="1.0" encoding="utf-8"?>
<!-- Generator: Adobe Illustrator 18.1.1, SVG Export Plug-In . SVG Version: 6.00 Build 0)  -->
<svg version="1.1" id="Layer_1" xmlns="http://www.w3.org/2000/svg" xmlns:xlink="http://www.w3.org/1999/xlink" x="0px" y="0px"
	 viewBox="0 0 400 400" enable-background="new 0 0 400 400" xml:space="preserve">
<g>
	<path fill="#00A14B" d="M104.6,174.2c0,0,87.5,2.3,93.2,90.3C197.8,264.5,219,155.9,104.6,174.2"/>
	<path fill="#00A14B" d="M157.4,170.8c0,0-23.7-15-54.7-4c0,0-6.3-37,14.3-50.7c0,0,40.7-13,61.7-52.7c0,0-5.3,43.3-44,59.7
		c0,0-18.1,14.5-17.7,27.3C117.1,150.5,154.4,150.8,157.4,170.8"/>
	<path fill="#21409A" d="M214.3,63.5c0,0,87,68.3,41,124.3c0,0-23.5,32.5,2,62c0,0,19.5,23.5,35.5,32.5c0,0-44-43.5-11.5-94
		C281.3,188.3,306.3,125.1,214.3,63.5"/>
	<path fill="#21409A" d="M292.8,170.8c0,0-2.5-30-5.5-35c0,0,36,29,31.5,90.5C318.8,226.3,313.8,182.8,292.8,170.8"/>
	<path fill="#21409A" d="M237.3,211.3c0,0-0.5,22.5,3.5,25c0,0-17,9-22.5,61C218.3,297.3,213,243.9,237.3,211.3"/>
	<path fill="#00A14B" d="M140.3,71.3c0,7.8-6.3,14-14,14c-7.8,0-14-6.3-14-14s6.3-14,14-14C134,57.3,140.3,63.5,140.3,71.3"/>
	<path fill="#21409A" d="M305.8,99.4c0,10.2-8.3,18.5-18.5,18.5s-18.5-8.3-18.5-18.5s8.3-18.5,18.5-18.5S305.8,89.2,305.8,99.4"/>
	<path fill="#00A14B" d="M182.8,244.3c0,28.7-23.3,52-52,52s-52-23.3-52-52s23.3-52,52-52S182.8,215.6,182.8,244.3"/>
	<text transform="matrix(1 0 0 1 21.9746 366.45)" fill="#21409A" font-family="'Oklahoma-Bold'" font-size="46">GIGS FOR PWDS</text>
	<polygon fill="#F3AE1D" points="199,22 204.8,33.8 217.8,35.7 208.4,44.9 210.6,57.9 199,51.7 187.3,57.9 189.6,44.9 180.2,35.7 
		193.2,33.8 	"/>
</g>
</svg>
