<svg width="145" height="145" viewBox="0 0 145 145" fill="none" xmlns="http://www.w3.org/2000/svg">
<path d="M37.9175 63.1475C37.9175 63.1475 69.6362 63.9812 71.7025 95.8812C71.7025 95.8812 79.3875 56.5137 37.9175 63.1475Z" fill="#00A14B"/>
<path d="M57.0575 61.9149C57.0575 61.9149 48.4662 56.4774 37.2287 60.4649C37.2287 60.4649 34.945 47.0524 42.4125 42.0862C42.4125 42.0862 57.1662 37.3737 64.7787 22.9824C64.7787 22.9824 62.8575 38.6787 48.8287 44.6237C48.8287 44.6237 42.2675 49.8799 42.4125 54.5199C42.4487 54.5562 55.97 54.6649 57.0575 61.9149Z" fill="#00A14B"/>
<path d="M77.6837 23.0187C77.6837 23.0187 109.221 47.7774 92.5462 68.0774C92.5462 68.0774 84.0275 79.8587 93.2712 90.5524C93.2712 90.5524 100.34 99.0712 106.14 102.334C106.14 102.334 90.19 86.5649 101.971 68.2587C101.971 68.2587 111.034 45.3487 77.6837 23.0187Z" fill="#21409A"/>
<path d="M106.14 61.915C106.14 61.915 105.234 51.04 104.146 49.2275C104.146 49.2275 117.196 59.74 115.565 82.0338C115.565 82.0338 113.752 66.265 106.14 61.915Z" fill="#21409A"/>
<path d="M86.0213 76.5962C86.0213 76.5962 85.84 84.7524 87.29 85.6587C87.29 85.6587 81.1275 88.9212 79.1338 107.771C79.1338 107.771 77.2125 88.4137 86.0213 76.5962Z" fill="#21409A"/>
<path d="M50.8587 25.8462C50.8587 28.6737 48.575 30.9212 45.7837 30.9212C42.9562 30.9212 40.7087 28.6375 40.7087 25.8462C40.7087 23.055 42.9925 20.7712 45.7837 20.7712C48.575 20.7712 50.8587 23.0187 50.8587 25.8462Z" fill="#00A14B"/>
<path d="M110.852 36.0324C110.852 39.7299 107.844 42.7387 104.146 42.7387C100.449 42.7387 97.44 39.7299 97.44 36.0324C97.44 32.3349 100.449 29.3262 104.146 29.3262C107.844 29.3262 110.852 32.3349 110.852 36.0324Z" fill="#21409A"/>
<path d="M66.265 88.5587C66.265 98.9625 57.8188 107.409 47.415 107.409C37.0113 107.409 28.565 98.9625 28.565 88.5587C28.565 78.155 37.0113 69.7087 47.415 69.7087C57.8188 69.7087 66.265 78.155 66.265 88.5587Z" fill="#00A14B"/>
<path d="M72.1375 7.97498L74.24 12.2525L78.9525 12.9412L75.545 16.2762L76.3425 20.9887L72.1375 18.7412L67.8963 20.9887L68.73 16.2762L65.3225 12.9412L70.035 12.2525L72.1375 7.97498Z" fill="#F3AE1D"/>
<path d="M26.1729 126.1C25.7712 126.675 25.2094 127.107 24.4875 127.395C23.771 127.677 22.9351 127.818 21.9797 127.818C21.0135 127.818 20.1559 127.593 19.4068 127.142C18.6578 126.686 18.0769 126.04 17.6644 125.204C17.2573 124.368 17.0483 123.4 17.0375 122.298V121.264C17.0375 119.478 17.4527 118.094 18.2832 117.111C19.1191 116.129 20.2916 115.637 21.8006 115.637C23.0382 115.637 24.0342 115.955 24.7887 116.59C25.5432 117.22 26.0046 118.115 26.1729 119.277H24.6096C24.3165 117.708 23.3829 116.924 21.8087 116.924C20.7611 116.924 19.9659 117.293 19.4231 118.031C18.8857 118.764 18.6143 119.828 18.6089 121.223V122.192C18.6089 123.522 18.9129 124.58 19.5208 125.367C20.1288 126.149 20.9511 126.54 21.9879 126.54C22.5741 126.54 23.087 126.475 23.5267 126.344C23.9664 126.214 24.3301 125.994 24.6178 125.685V123.022H21.8739V121.752H26.1729V126.1Z" fill="#21409A"/>
<path d="M30.4638 127.655H28.9005V115.8H30.4638V127.655Z" fill="#21409A"/>
<path d="M42.0825 126.1C41.6809 126.675 41.1191 127.107 40.3971 127.395C39.6806 127.677 38.8447 127.818 37.8894 127.818C36.9232 127.818 36.0655 127.593 35.3165 127.142C34.5674 126.686 33.9866 126.04 33.5741 125.204C33.167 124.368 32.958 123.4 32.9471 122.298V121.264C32.9471 119.478 33.3624 118.094 34.1929 117.111C35.0288 116.129 36.2012 115.637 37.7102 115.637C38.9478 115.637 39.9439 115.955 40.6984 116.59C41.4529 117.22 41.9143 118.115 42.0825 119.277H40.5193C40.2261 117.708 39.2925 116.924 37.7184 116.924C36.6708 116.924 35.8756 117.293 35.3328 118.031C34.7954 118.764 34.524 119.828 34.5185 121.223V122.192C34.5185 123.522 34.8225 124.58 35.4305 125.367C36.0384 126.149 36.8608 126.54 37.8975 126.54C38.4837 126.54 38.9967 126.475 39.4364 126.344C39.876 126.214 40.2397 125.994 40.5274 125.685V123.022H37.7835V121.752H42.0825V126.1Z" fill="#21409A"/>
<path d="M48.1891 122.371C46.8484 121.986 45.8713 121.513 45.258 120.954C44.65 120.39 44.346 119.695 44.346 118.87C44.346 117.936 44.7179 117.165 45.4615 116.558C46.2106 115.944 47.1822 115.637 48.3764 115.637C49.1906 115.637 49.9152 115.795 50.5503 116.11C51.1908 116.425 51.6848 116.859 52.0322 117.412C52.385 117.966 52.5614 118.571 52.5614 119.228H50.99C50.99 118.512 50.762 117.95 50.3061 117.543C49.8501 117.13 49.2069 116.924 48.3764 116.924C47.6056 116.924 47.0031 117.095 46.5688 117.437C46.14 117.773 45.9256 118.243 45.9256 118.845C45.9256 119.329 46.1292 119.738 46.5363 120.075C46.9488 120.406 47.6463 120.71 48.6288 120.987C49.6167 121.264 50.3875 121.57 50.9411 121.907C51.5002 122.238 51.9128 122.626 52.1787 123.071C52.4501 123.516 52.5858 124.04 52.5858 124.643C52.5858 125.603 52.2113 126.374 51.4622 126.955C50.7132 127.53 49.7117 127.818 48.4578 127.818C47.6436 127.818 46.8837 127.663 46.178 127.354C45.4724 127.039 44.9268 126.61 44.5415 126.067C44.1615 125.525 43.9715 124.909 43.9715 124.219H45.5429C45.5429 124.936 45.8062 125.503 46.3327 125.921C46.8647 126.333 47.573 126.54 48.4578 126.54C49.2829 126.54 49.9152 126.371 50.3549 126.035C50.7946 125.698 51.0144 125.24 51.0144 124.659C51.0144 124.078 50.8109 123.63 50.4038 123.315C49.9967 122.995 49.2584 122.68 48.1891 122.371Z" fill="#21409A"/>
<path d="M65.2712 122.42H60.2964V127.655H58.7331V115.8H66.0773V117.087H60.2964V121.141H65.2712V122.42Z" fill="#21409A"/>
<path d="M77.0691 122.11C77.0691 123.272 76.8737 124.287 76.4829 125.156C76.0921 126.019 75.5384 126.678 74.8219 127.134C74.1054 127.59 73.2695 127.818 72.3141 127.818C71.3805 127.818 70.5527 127.59 69.8308 127.134C69.1089 126.673 68.5471 126.019 68.1454 125.172C67.7491 124.32 67.5456 123.334 67.5347 122.216V121.361C67.5347 120.221 67.7328 119.215 68.1291 118.341C68.5253 117.467 69.0844 116.799 69.8064 116.338C70.5337 115.871 71.3642 115.637 72.2978 115.637C73.2478 115.637 74.0837 115.868 74.8056 116.33C75.533 116.785 76.0921 117.45 76.4829 118.324C76.8737 119.193 77.0691 120.205 77.0691 121.361V122.11ZM75.514 121.345C75.514 119.939 75.2317 118.862 74.6672 118.113C74.1027 117.358 73.3129 116.981 72.2978 116.981C71.3099 116.981 70.531 117.358 69.9611 118.113C69.3965 118.862 69.1061 119.904 69.0899 121.239V122.11C69.0899 123.473 69.3748 124.545 69.9448 125.327C70.5202 126.103 71.3099 126.491 72.3141 126.491C73.3237 126.491 74.1054 126.124 74.659 125.392C75.2127 124.653 75.4977 123.598 75.514 122.224V121.345Z" fill="#21409A"/>
<path d="M83.7619 122.859H80.9773V127.655H79.4059V115.8H83.3304C84.6657 115.8 85.6916 116.104 86.4081 116.712C87.13 117.32 87.491 118.205 87.491 119.367C87.491 120.105 87.2901 120.748 86.8885 121.296C86.4922 121.844 85.9386 122.254 85.2275 122.526L88.0121 127.557V127.655H86.3348L83.7619 122.859ZM80.9773 121.581H83.3792C84.1554 121.581 84.7715 121.38 85.2275 120.979C85.6889 120.577 85.9196 120.04 85.9196 119.367C85.9196 118.634 85.6997 118.072 85.26 117.681C84.8258 117.29 84.1962 117.092 83.3711 117.087H80.9773V121.581Z" fill="#21409A"/>
<path d="M95.3888 123.014V127.655H93.8255V115.8H98.1978C99.4951 115.8 100.51 116.131 101.243 116.794C101.981 117.456 102.35 118.332 102.35 119.424C102.35 120.574 101.989 121.462 101.267 122.086C100.551 122.705 99.5223 123.014 98.1815 123.014H95.3888ZM95.3888 121.736H98.1978C99.0338 121.736 99.6743 121.54 100.119 121.15C100.564 120.753 100.787 120.183 100.787 119.44C100.787 118.734 100.564 118.17 100.119 117.746C99.6743 117.323 99.0636 117.103 98.2874 117.087H95.3888V121.736Z" fill="#21409A"/>
<path d="M106.902 123.918L107.13 125.481L107.464 124.073L109.808 115.8H111.127L113.415 124.073L113.741 125.506L113.993 123.91L115.834 115.8H117.405L114.531 127.655H113.106L110.663 119.016L110.476 118.113L110.289 119.016L107.757 127.655H106.332L103.466 115.8H105.029L106.902 123.918Z" fill="#21409A"/>
<path d="M119.147 127.655V115.8H122.494C123.525 115.8 124.437 116.028 125.23 116.484C126.022 116.94 126.633 117.589 127.062 118.43C127.496 119.272 127.716 120.238 127.721 121.329V122.086C127.721 123.204 127.504 124.184 127.07 125.025C126.641 125.867 126.025 126.513 125.221 126.963C124.424 127.414 123.493 127.644 122.429 127.655H119.147ZM120.711 117.087V126.377H122.355C123.56 126.377 124.497 126.002 125.164 125.253C125.838 124.504 126.174 123.438 126.174 122.053V121.361C126.174 120.015 125.857 118.97 125.221 118.227C124.592 117.478 123.696 117.098 122.535 117.087H120.711Z" fill="#21409A"/>
<path d="M133.583 122.371C132.243 121.986 131.266 121.513 130.652 120.954C130.044 120.39 129.74 119.695 129.74 118.87C129.74 117.936 130.112 117.165 130.856 116.558C131.605 115.944 132.576 115.637 133.771 115.637C134.585 115.637 135.309 115.795 135.945 116.11C136.585 116.425 137.079 116.859 137.426 117.412C137.779 117.966 137.956 118.571 137.956 119.228H136.384C136.384 118.512 136.156 117.95 135.7 117.543C135.244 117.13 134.601 116.924 133.771 116.924C133 116.924 132.397 117.095 131.963 117.437C131.534 117.773 131.32 118.243 131.32 118.845C131.32 119.329 131.523 119.738 131.931 120.075C132.343 120.406 133.041 120.71 134.023 120.987C135.011 121.264 135.782 121.57 136.335 121.907C136.894 122.238 137.307 122.626 137.573 123.071C137.844 123.516 137.98 124.04 137.98 124.643C137.98 125.603 137.606 126.374 136.856 126.955C136.107 127.53 135.106 127.818 133.852 127.818C133.038 127.818 132.278 127.663 131.572 127.354C130.867 127.039 130.321 126.61 129.936 126.067C129.556 125.525 129.366 124.909 129.366 124.219H130.937C130.937 124.936 131.2 125.503 131.727 125.921C132.259 126.333 132.967 126.54 133.852 126.54C134.677 126.54 135.309 126.371 135.749 126.035C136.189 125.698 136.409 125.24 136.409 124.659C136.409 124.078 136.205 123.63 135.798 123.315C135.391 122.995 134.653 122.68 133.583 122.371Z" fill="#21409A"/>
</svg>
